<mxfile host="app.diagrams.net" agent="Mozilla/5.0 (Windows NT 10.0; Win64; x64) AppleWebKit/537.36 (KHTML, like Gecko) Chrome/138.0.0.0 Safari/537.36" version="28.0.9">
  <diagram name="PÃ¡gina-1" id="oyp6gYukoGkuxok4pgUy">
    <mxGraphModel grid="1" page="1" gridSize="10" guides="1" tooltips="1" connect="1" arrows="1" fold="1" pageScale="1" pageWidth="827" pageHeight="1169" math="0" shadow="0">
      <root>
        <mxCell id="0" />
        <mxCell id="1" parent="0" />
        <mxCell id="MgMpE2ZeD4QbmUK1CcjM-59" style="rounded=0;orthogonalLoop=1;jettySize=auto;html=1;exitX=0.5;exitY=1;exitDx=0;exitDy=0;endArrow=none;endFill=0;labelBackgroundColor=none;strokeColor=#A8201A;fontColor=default;" edge="1" parent="1" source="MgMpE2ZeD4QbmUK1CcjM-45" target="MgMpE2ZeD4QbmUK1CcjM-49">
          <mxGeometry relative="1" as="geometry" />
        </mxCell>
        <mxCell id="opu5_M7TtZPBm6sJk3Sp-60" value="N" style="rounded=0;orthogonalLoop=1;jettySize=auto;html=1;exitX=0;exitY=0.5;exitDx=0;exitDy=0;entryX=1;entryY=0.5;entryDx=0;entryDy=0;strokeColor=#A8201A;fontColor=#143642;fillColor=#FAE5C7;endArrow=none;endFill=0;" edge="1" parent="1" source="MgMpE2ZeD4QbmUK1CcjM-45" target="opu5_M7TtZPBm6sJk3Sp-59">
          <mxGeometry relative="1" as="geometry" />
        </mxCell>
        <mxCell id="MgMpE2ZeD4QbmUK1CcjM-45" value="Cadastro" style="whiteSpace=wrap;html=1;align=center;labelBackgroundColor=none;fillColor=#FAE5C7;strokeColor=#0F8B8D;fontColor=#143642;" vertex="1" parent="1">
          <mxGeometry x="-594" y="-44.86" width="100" height="40" as="geometry" />
        </mxCell>
        <mxCell id="MgMpE2ZeD4QbmUK1CcjM-46" value="descricao" style="ellipse;whiteSpace=wrap;html=1;align=center;labelBackgroundColor=none;fillColor=#FAE5C7;strokeColor=#0F8B8D;fontColor=#143642;" vertex="1" parent="1">
          <mxGeometry x="-494" y="130" width="100" height="40" as="geometry" />
        </mxCell>
        <mxCell id="MgMpE2ZeD4QbmUK1CcjM-47" value="nome" style="ellipse;whiteSpace=wrap;html=1;align=center;labelBackgroundColor=none;fillColor=#FAE5C7;strokeColor=#0F8B8D;fontColor=#143642;" vertex="1" parent="1">
          <mxGeometry x="-730" y="100" width="100" height="40" as="geometry" />
        </mxCell>
        <mxCell id="MgMpE2ZeD4QbmUK1CcjM-48" value="id" style="ellipse;whiteSpace=wrap;html=1;align=center;labelBackgroundColor=none;fillColor=#FAE5C7;strokeColor=#0F8B8D;fontColor=#143642;" vertex="1" parent="1">
          <mxGeometry x="-800" y="40" width="100" height="40" as="geometry" />
        </mxCell>
        <mxCell id="MgMpE2ZeD4QbmUK1CcjM-49" value="preco" style="ellipse;whiteSpace=wrap;html=1;align=center;labelBackgroundColor=none;fillColor=#FAE5C7;strokeColor=#0F8B8D;fontColor=#143642;" vertex="1" parent="1">
          <mxGeometry x="-620" y="130" width="100" height="40" as="geometry" />
        </mxCell>
        <mxCell id="MgMpE2ZeD4QbmUK1CcjM-60" style="rounded=0;orthogonalLoop=1;jettySize=auto;html=1;exitX=0.5;exitY=1;exitDx=0;exitDy=0;endArrow=none;endFill=0;entryX=0.764;entryY=0.108;entryDx=0;entryDy=0;entryPerimeter=0;labelBackgroundColor=none;strokeColor=#A8201A;fontColor=default;" edge="1" parent="1" source="MgMpE2ZeD4QbmUK1CcjM-45" target="MgMpE2ZeD4QbmUK1CcjM-47">
          <mxGeometry relative="1" as="geometry" />
        </mxCell>
        <mxCell id="MgMpE2ZeD4QbmUK1CcjM-61" style="rounded=0;orthogonalLoop=1;jettySize=auto;html=1;exitX=0.5;exitY=1;exitDx=0;exitDy=0;endArrow=none;endFill=0;entryX=0.827;entryY=0.358;entryDx=0;entryDy=0;entryPerimeter=0;labelBackgroundColor=none;strokeColor=#A8201A;fontColor=default;" edge="1" parent="1" source="MgMpE2ZeD4QbmUK1CcjM-45" target="MgMpE2ZeD4QbmUK1CcjM-48">
          <mxGeometry relative="1" as="geometry" />
        </mxCell>
        <mxCell id="MgMpE2ZeD4QbmUK1CcjM-62" style="rounded=0;orthogonalLoop=1;jettySize=auto;html=1;exitX=0.5;exitY=1;exitDx=0;exitDy=0;endArrow=none;endFill=0;entryX=0.5;entryY=0;entryDx=0;entryDy=0;labelBackgroundColor=none;strokeColor=#A8201A;fontColor=default;" edge="1" parent="1" source="MgMpE2ZeD4QbmUK1CcjM-45" target="MgMpE2ZeD4QbmUK1CcjM-46">
          <mxGeometry relative="1" as="geometry" />
        </mxCell>
        <mxCell id="MgMpE2ZeD4QbmUK1CcjM-64" style="rounded=0;orthogonalLoop=1;jettySize=auto;html=1;exitX=0.5;exitY=1;exitDx=0;exitDy=0;endArrow=none;endFill=0;labelBackgroundColor=none;strokeColor=#A8201A;fontColor=default;" edge="1" parent="1" source="MgMpE2ZeD4QbmUK1CcjM-65" target="MgMpE2ZeD4QbmUK1CcjM-69">
          <mxGeometry relative="1" as="geometry" />
        </mxCell>
        <mxCell id="opu5_M7TtZPBm6sJk3Sp-103" value="1" style="rounded=0;orthogonalLoop=1;jettySize=auto;html=1;exitX=1;exitY=0.5;exitDx=0;exitDy=0;entryX=0;entryY=0.5;entryDx=0;entryDy=0;strokeColor=#A8201A;fontColor=#143642;fillColor=#FAE5C7;endArrow=none;endFill=0;" edge="1" parent="1" source="MgMpE2ZeD4QbmUK1CcjM-65" target="opu5_M7TtZPBm6sJk3Sp-102">
          <mxGeometry relative="1" as="geometry" />
        </mxCell>
        <mxCell id="MgMpE2ZeD4QbmUK1CcjM-65" value="Usuario" style="whiteSpace=wrap;html=1;align=center;labelBackgroundColor=none;fillColor=#FAE5C7;strokeColor=#0F8B8D;fontColor=#143642;" vertex="1" parent="1">
          <mxGeometry x="-172.5" y="-40" width="103" height="40" as="geometry" />
        </mxCell>
        <mxCell id="MgMpE2ZeD4QbmUK1CcjM-66" value="endereco" style="ellipse;whiteSpace=wrap;html=1;align=center;labelBackgroundColor=none;fillColor=#FAE5C7;strokeColor=#0F8B8D;fontColor=#143642;" vertex="1" parent="1">
          <mxGeometry x="-100" y="195" width="100" height="40" as="geometry" />
        </mxCell>
        <mxCell id="MgMpE2ZeD4QbmUK1CcjM-67" value="nome" style="ellipse;whiteSpace=wrap;html=1;align=center;labelBackgroundColor=none;fillColor=#FAE5C7;strokeColor=#0F8B8D;fontColor=#143642;" vertex="1" parent="1">
          <mxGeometry x="-314" y="270" width="100" height="40" as="geometry" />
        </mxCell>
        <mxCell id="MgMpE2ZeD4QbmUK1CcjM-68" value="cpf" style="ellipse;whiteSpace=wrap;html=1;align=center;labelBackgroundColor=none;fillColor=#FAE5C7;strokeColor=#0F8B8D;fontColor=#143642;" vertex="1" parent="1">
          <mxGeometry x="-257" y="115" width="100" height="40" as="geometry" />
        </mxCell>
        <mxCell id="MgMpE2ZeD4QbmUK1CcjM-69" value="nome completo" style="ellipse;whiteSpace=wrap;html=1;align=center;labelBackgroundColor=none;fillColor=#FAE5C7;strokeColor=#0F8B8D;fontColor=#143642;" vertex="1" parent="1">
          <mxGeometry x="-224" y="205" width="100" height="40" as="geometry" />
        </mxCell>
        <mxCell id="MgMpE2ZeD4QbmUK1CcjM-71" style="rounded=0;orthogonalLoop=1;jettySize=auto;html=1;exitX=0.5;exitY=1;exitDx=0;exitDy=0;endArrow=none;endFill=0;entryX=0.827;entryY=0.358;entryDx=0;entryDy=0;entryPerimeter=0;labelBackgroundColor=none;strokeColor=#A8201A;fontColor=default;" edge="1" parent="1" source="MgMpE2ZeD4QbmUK1CcjM-65" target="MgMpE2ZeD4QbmUK1CcjM-68">
          <mxGeometry relative="1" as="geometry" />
        </mxCell>
        <mxCell id="MgMpE2ZeD4QbmUK1CcjM-72" style="rounded=0;orthogonalLoop=1;jettySize=auto;html=1;exitX=0.5;exitY=1;exitDx=0;exitDy=0;endArrow=none;endFill=0;entryX=0.5;entryY=0;entryDx=0;entryDy=0;labelBackgroundColor=none;strokeColor=#A8201A;fontColor=default;" edge="1" parent="1" source="MgMpE2ZeD4QbmUK1CcjM-65" target="MgMpE2ZeD4QbmUK1CcjM-66">
          <mxGeometry relative="1" as="geometry" />
        </mxCell>
        <mxCell id="MgMpE2ZeD4QbmUK1CcjM-73" value="telefones" style="ellipse;whiteSpace=wrap;html=1;align=center;labelBackgroundColor=none;fillColor=#FAE5C7;strokeColor=#0F8B8D;fontColor=#143642;" vertex="1" parent="1">
          <mxGeometry x="-40" y="155" width="100" height="40" as="geometry" />
        </mxCell>
        <mxCell id="MgMpE2ZeD4QbmUK1CcjM-74" style="rounded=0;orthogonalLoop=1;jettySize=auto;html=1;exitX=0.5;exitY=1;exitDx=0;exitDy=0;endArrow=none;endFill=0;entryX=0;entryY=0;entryDx=0;entryDy=0;labelBackgroundColor=none;strokeColor=#A8201A;fontColor=default;" edge="1" parent="1" source="MgMpE2ZeD4QbmUK1CcjM-65" target="MgMpE2ZeD4QbmUK1CcjM-73">
          <mxGeometry relative="1" as="geometry" />
        </mxCell>
        <mxCell id="MgMpE2ZeD4QbmUK1CcjM-75" value="sobrenome" style="ellipse;whiteSpace=wrap;html=1;align=center;labelBackgroundColor=none;fillColor=#FAE5C7;strokeColor=#0F8B8D;fontColor=#143642;" vertex="1" parent="1">
          <mxGeometry x="-190" y="270" width="100" height="40" as="geometry" />
        </mxCell>
        <mxCell id="MgMpE2ZeD4QbmUK1CcjM-78" style="rounded=0;orthogonalLoop=1;jettySize=auto;html=1;exitX=0.5;exitY=1;exitDx=0;exitDy=0;entryX=0.451;entryY=0.186;entryDx=0;entryDy=0;entryPerimeter=0;endArrow=none;endFill=0;labelBackgroundColor=none;strokeColor=#A8201A;fontColor=default;" edge="1" parent="1" source="MgMpE2ZeD4QbmUK1CcjM-69" target="MgMpE2ZeD4QbmUK1CcjM-75">
          <mxGeometry relative="1" as="geometry" />
        </mxCell>
        <mxCell id="MgMpE2ZeD4QbmUK1CcjM-82" style="rounded=0;orthogonalLoop=1;jettySize=auto;html=1;exitX=0.5;exitY=1;exitDx=0;exitDy=0;entryX=1;entryY=0;entryDx=0;entryDy=0;endArrow=none;endFill=0;labelBackgroundColor=none;strokeColor=#A8201A;fontColor=default;" edge="1" parent="1" source="MgMpE2ZeD4QbmUK1CcjM-69" target="MgMpE2ZeD4QbmUK1CcjM-67">
          <mxGeometry relative="1" as="geometry" />
        </mxCell>
        <mxCell id="MgMpE2ZeD4QbmUK1CcjM-83" value="cep" style="ellipse;whiteSpace=wrap;html=1;align=center;labelBackgroundColor=none;fillColor=#FAE5C7;strokeColor=#0F8B8D;fontColor=#143642;" vertex="1" parent="1">
          <mxGeometry x="-114" y="310" width="90" height="40" as="geometry" />
        </mxCell>
        <mxCell id="MgMpE2ZeD4QbmUK1CcjM-84" value="complemento" style="ellipse;whiteSpace=wrap;html=1;align=center;labelBackgroundColor=none;fillColor=#FAE5C7;strokeColor=#0F8B8D;fontColor=#143642;" vertex="1" parent="1">
          <mxGeometry x="18" y="265" width="90" height="40" as="geometry" />
        </mxCell>
        <mxCell id="MgMpE2ZeD4QbmUK1CcjM-85" value="numero" style="ellipse;whiteSpace=wrap;html=1;align=center;labelBackgroundColor=none;fillColor=#FAE5C7;strokeColor=#0F8B8D;fontColor=#143642;" vertex="1" parent="1">
          <mxGeometry x="-10" y="330" width="100" height="40" as="geometry" />
        </mxCell>
        <mxCell id="MgMpE2ZeD4QbmUK1CcjM-86" style="rounded=0;orthogonalLoop=1;jettySize=auto;html=1;exitX=0.5;exitY=1;exitDx=0;exitDy=0;entryX=0.758;entryY=0.064;entryDx=0;entryDy=0;entryPerimeter=0;endArrow=none;endFill=0;labelBackgroundColor=none;strokeColor=#A8201A;fontColor=default;" edge="1" parent="1" source="MgMpE2ZeD4QbmUK1CcjM-66" target="MgMpE2ZeD4QbmUK1CcjM-83">
          <mxGeometry relative="1" as="geometry" />
        </mxCell>
        <mxCell id="MgMpE2ZeD4QbmUK1CcjM-87" style="rounded=0;orthogonalLoop=1;jettySize=auto;html=1;exitX=0.5;exitY=1;exitDx=0;exitDy=0;entryX=0.387;entryY=0.042;entryDx=0;entryDy=0;entryPerimeter=0;endArrow=none;endFill=0;labelBackgroundColor=none;strokeColor=#A8201A;fontColor=default;" edge="1" parent="1" source="MgMpE2ZeD4QbmUK1CcjM-66" target="MgMpE2ZeD4QbmUK1CcjM-85">
          <mxGeometry relative="1" as="geometry" />
        </mxCell>
        <mxCell id="MgMpE2ZeD4QbmUK1CcjM-88" style="rounded=0;orthogonalLoop=1;jettySize=auto;html=1;exitX=0.5;exitY=1;exitDx=0;exitDy=0;entryX=0.5;entryY=0;entryDx=0;entryDy=0;endArrow=none;endFill=0;labelBackgroundColor=none;strokeColor=#A8201A;fontColor=default;" edge="1" parent="1" source="MgMpE2ZeD4QbmUK1CcjM-66" target="MgMpE2ZeD4QbmUK1CcjM-84">
          <mxGeometry relative="1" as="geometry" />
        </mxCell>
        <mxCell id="MgMpE2ZeD4QbmUK1CcjM-153" style="rounded=0;orthogonalLoop=1;jettySize=auto;html=1;exitX=0;exitY=0.5;exitDx=0;exitDy=0;strokeColor=#A8201A;fontColor=#143642;fillColor=#FAE5C7;endArrow=none;endFill=0;" edge="1" parent="1">
          <mxGeometry relative="1" as="geometry">
            <mxPoint x="-517" y="225" as="sourcePoint" />
            <mxPoint x="-517" y="225" as="targetPoint" />
          </mxGeometry>
        </mxCell>
        <mxCell id="MgMpE2ZeD4QbmUK1CcjM-186" value="1" style="rounded=0;orthogonalLoop=1;jettySize=auto;html=1;exitX=0;exitY=0.5;exitDx=0;exitDy=0;entryX=1;entryY=0.5;entryDx=0;entryDy=0;strokeColor=#A8201A;fontColor=#143642;fillColor=#FAE5C7;endArrow=none;endFill=0;" edge="1" parent="1" source="MgMpE2ZeD4QbmUK1CcjM-184" target="MgMpE2ZeD4QbmUK1CcjM-45">
          <mxGeometry relative="1" as="geometry" />
        </mxCell>
        <mxCell id="opu5_M7TtZPBm6sJk3Sp-5" value="1" style="rounded=0;orthogonalLoop=1;jettySize=auto;html=1;exitX=1;exitY=0.5;exitDx=0;exitDy=0;entryX=0;entryY=0.5;entryDx=0;entryDy=0;strokeColor=#A8201A;fontColor=#143642;fillColor=#FAE5C7;endArrow=none;endFill=0;" edge="1" parent="1" source="MgMpE2ZeD4QbmUK1CcjM-184" target="MgMpE2ZeD4QbmUK1CcjM-65">
          <mxGeometry relative="1" as="geometry" />
        </mxCell>
        <mxCell id="MgMpE2ZeD4QbmUK1CcjM-184" value="Faz" style="shape=rhombus;perimeter=rhombusPerimeter;whiteSpace=wrap;html=1;align=center;strokeColor=#B20000;fillColor=#e51400;fontColor=#ffffff;" vertex="1" parent="1">
          <mxGeometry x="-394" y="-45" width="90" height="50" as="geometry" />
        </mxCell>
        <mxCell id="opu5_M7TtZPBm6sJk3Sp-1" value="pais de residencia" style="ellipse;whiteSpace=wrap;html=1;align=center;strokeColor=#0F8B8D;fontColor=#143642;fillColor=#FAE5C7;" vertex="1" parent="1">
          <mxGeometry x="50" y="215" width="100" height="40" as="geometry" />
        </mxCell>
        <mxCell id="opu5_M7TtZPBm6sJk3Sp-2" style="rounded=0;orthogonalLoop=1;jettySize=auto;html=1;exitX=1;exitY=1;exitDx=0;exitDy=0;entryX=0.363;entryY=0.058;entryDx=0;entryDy=0;entryPerimeter=0;strokeColor=#A8201A;fontColor=#143642;fillColor=#FAE5C7;endArrow=none;endFill=0;" edge="1" parent="1" source="MgMpE2ZeD4QbmUK1CcjM-73" target="opu5_M7TtZPBm6sJk3Sp-1">
          <mxGeometry relative="1" as="geometry" />
        </mxCell>
        <mxCell id="opu5_M7TtZPBm6sJk3Sp-16" style="rounded=0;orthogonalLoop=1;jettySize=auto;html=1;exitX=0.5;exitY=1;exitDx=0;exitDy=0;entryX=1;entryY=0;entryDx=0;entryDy=0;strokeColor=#A8201A;fontColor=#143642;fillColor=#FAE5C7;endArrow=none;endFill=0;" edge="1" parent="1" source="opu5_M7TtZPBm6sJk3Sp-7" target="opu5_M7TtZPBm6sJk3Sp-8">
          <mxGeometry relative="1" as="geometry" />
        </mxCell>
        <mxCell id="opu5_M7TtZPBm6sJk3Sp-104" value="N" style="rounded=0;orthogonalLoop=1;jettySize=auto;html=1;exitX=0;exitY=0.5;exitDx=0;exitDy=0;entryX=1;entryY=0.5;entryDx=0;entryDy=0;strokeColor=#A8201A;fontColor=#143642;fillColor=#FAE5C7;endArrow=none;endFill=0;" edge="1" parent="1" source="opu5_M7TtZPBm6sJk3Sp-7" target="opu5_M7TtZPBm6sJk3Sp-102">
          <mxGeometry relative="1" as="geometry" />
        </mxCell>
        <mxCell id="opu5_M7TtZPBm6sJk3Sp-7" value="Conteudo" style="whiteSpace=wrap;html=1;align=center;strokeColor=#0F8B8D;fontColor=#143642;fillColor=#FAE5C7;" vertex="1" parent="1">
          <mxGeometry x="250" y="-40" width="100" height="40" as="geometry" />
        </mxCell>
        <mxCell id="opu5_M7TtZPBm6sJk3Sp-8" value="titulo" style="ellipse;whiteSpace=wrap;html=1;align=center;strokeColor=#0F8B8D;fontColor=#143642;fillColor=#FAE5C7;" vertex="1" parent="1">
          <mxGeometry x="150" y="75" width="100" height="40" as="geometry" />
        </mxCell>
        <mxCell id="opu5_M7TtZPBm6sJk3Sp-9" value="ano de lancamento" style="ellipse;whiteSpace=wrap;html=1;align=center;strokeColor=#0F8B8D;fontColor=#143642;fillColor=#FAE5C7;" vertex="1" parent="1">
          <mxGeometry x="230" y="140" width="100" height="40" as="geometry" />
        </mxCell>
        <mxCell id="opu5_M7TtZPBm6sJk3Sp-10" value="descricao" style="ellipse;whiteSpace=wrap;html=1;align=center;strokeColor=#0F8B8D;fontColor=#143642;fillColor=#FAE5C7;" vertex="1" parent="1">
          <mxGeometry x="520" y="110" width="100" height="40" as="geometry" />
        </mxCell>
        <mxCell id="opu5_M7TtZPBm6sJk3Sp-11" value="duracao" style="ellipse;whiteSpace=wrap;html=1;align=center;strokeColor=#0F8B8D;fontColor=#143642;fillColor=#FAE5C7;" vertex="1" parent="1">
          <mxGeometry x="340" y="165" width="100" height="40" as="geometry" />
        </mxCell>
        <mxCell id="opu5_M7TtZPBm6sJk3Sp-25" style="rounded=0;orthogonalLoop=1;jettySize=auto;html=1;exitX=0.5;exitY=1;exitDx=0;exitDy=0;entryX=0.5;entryY=0;entryDx=0;entryDy=0;strokeColor=#A8201A;fontColor=#143642;fillColor=#FAE5C7;endArrow=none;endFill=0;" edge="1" parent="1" source="opu5_M7TtZPBm6sJk3Sp-12" target="opu5_M7TtZPBm6sJk3Sp-13">
          <mxGeometry relative="1" as="geometry" />
        </mxCell>
        <mxCell id="opu5_M7TtZPBm6sJk3Sp-12" value="tipo" style="ellipse;whiteSpace=wrap;html=1;align=center;strokeColor=#0F8B8D;fontColor=#143642;fillColor=#FAE5C7;" vertex="1" parent="1">
          <mxGeometry x="480" y="155" width="100" height="40" as="geometry" />
        </mxCell>
        <mxCell id="opu5_M7TtZPBm6sJk3Sp-13" value="serie" style="ellipse;whiteSpace=wrap;html=1;align=center;dashed=1;strokeColor=#0F8B8D;fontColor=#143642;fillColor=#FAE5C7;" vertex="1" parent="1">
          <mxGeometry x="470" y="230" width="100" height="40" as="geometry" />
        </mxCell>
        <mxCell id="opu5_M7TtZPBm6sJk3Sp-14" value="filme" style="ellipse;whiteSpace=wrap;html=1;align=center;dashed=1;strokeColor=#0F8B8D;fontColor=#143642;fillColor=#FAE5C7;" vertex="1" parent="1">
          <mxGeometry x="580" y="230" width="100" height="40" as="geometry" />
        </mxCell>
        <mxCell id="opu5_M7TtZPBm6sJk3Sp-15" value="classificacao etaria" style="ellipse;whiteSpace=wrap;html=1;align=center;strokeColor=#0F8B8D;fontColor=#143642;fillColor=#FAE5C7;" vertex="1" parent="1">
          <mxGeometry x="520" y="50" width="100" height="40" as="geometry" />
        </mxCell>
        <mxCell id="opu5_M7TtZPBm6sJk3Sp-17" style="rounded=0;orthogonalLoop=1;jettySize=auto;html=1;exitX=0.5;exitY=1;exitDx=0;exitDy=0;entryX=0.5;entryY=0;entryDx=0;entryDy=0;strokeColor=#A8201A;fontColor=#143642;fillColor=#FAE5C7;endArrow=none;endFill=0;" edge="1" parent="1" source="opu5_M7TtZPBm6sJk3Sp-7" target="opu5_M7TtZPBm6sJk3Sp-9">
          <mxGeometry relative="1" as="geometry" />
        </mxCell>
        <mxCell id="opu5_M7TtZPBm6sJk3Sp-18" style="rounded=0;orthogonalLoop=1;jettySize=auto;html=1;exitX=0.5;exitY=1;exitDx=0;exitDy=0;strokeColor=#A8201A;fontColor=#143642;fillColor=#FAE5C7;endArrow=none;endFill=0;" edge="1" parent="1" source="opu5_M7TtZPBm6sJk3Sp-7">
          <mxGeometry relative="1" as="geometry">
            <mxPoint x="390" y="165" as="targetPoint" />
          </mxGeometry>
        </mxCell>
        <mxCell id="opu5_M7TtZPBm6sJk3Sp-22" style="rounded=0;orthogonalLoop=1;jettySize=auto;html=1;exitX=0.5;exitY=1;exitDx=0;exitDy=0;strokeColor=#A8201A;fontColor=#143642;fillColor=#FAE5C7;endArrow=none;endFill=0;entryX=0.5;entryY=0;entryDx=0;entryDy=0;" edge="1" parent="1" source="opu5_M7TtZPBm6sJk3Sp-7" target="opu5_M7TtZPBm6sJk3Sp-12">
          <mxGeometry relative="1" as="geometry">
            <mxPoint x="390" y="165" as="targetPoint" />
          </mxGeometry>
        </mxCell>
        <mxCell id="opu5_M7TtZPBm6sJk3Sp-23" style="rounded=0;orthogonalLoop=1;jettySize=auto;html=1;exitX=0.5;exitY=1;exitDx=0;exitDy=0;strokeColor=#A8201A;fontColor=#143642;fillColor=#FAE5C7;endArrow=none;endFill=0;entryX=0.5;entryY=0;entryDx=0;entryDy=0;" edge="1" parent="1" source="opu5_M7TtZPBm6sJk3Sp-7" target="opu5_M7TtZPBm6sJk3Sp-10">
          <mxGeometry relative="1" as="geometry">
            <mxPoint x="390" y="165" as="targetPoint" />
          </mxGeometry>
        </mxCell>
        <mxCell id="opu5_M7TtZPBm6sJk3Sp-24" style="rounded=0;orthogonalLoop=1;jettySize=auto;html=1;exitX=0.5;exitY=1;exitDx=0;exitDy=0;strokeColor=#A8201A;fontColor=#143642;fillColor=#FAE5C7;endArrow=none;endFill=0;entryX=0.5;entryY=0;entryDx=0;entryDy=0;" edge="1" parent="1" source="opu5_M7TtZPBm6sJk3Sp-7" target="opu5_M7TtZPBm6sJk3Sp-15">
          <mxGeometry relative="1" as="geometry">
            <mxPoint x="390" y="165" as="targetPoint" />
          </mxGeometry>
        </mxCell>
        <mxCell id="opu5_M7TtZPBm6sJk3Sp-26" style="rounded=0;orthogonalLoop=1;jettySize=auto;html=1;entryX=0.5;entryY=0;entryDx=0;entryDy=0;strokeColor=#A8201A;fontColor=#143642;fillColor=#FAE5C7;endArrow=none;endFill=0;" edge="1" parent="1" target="opu5_M7TtZPBm6sJk3Sp-14">
          <mxGeometry relative="1" as="geometry">
            <mxPoint x="530" y="195" as="sourcePoint" />
          </mxGeometry>
        </mxCell>
        <mxCell id="opu5_M7TtZPBm6sJk3Sp-30" style="rounded=0;orthogonalLoop=1;jettySize=auto;html=1;exitX=0.5;exitY=1;exitDx=0;exitDy=0;strokeColor=#A8201A;fontColor=#143642;fillColor=#FAE5C7;endArrow=none;endFill=0;entryX=0.5;entryY=0;entryDx=0;entryDy=0;" edge="1" parent="1" source="opu5_M7TtZPBm6sJk3Sp-27" target="opu5_M7TtZPBm6sJk3Sp-28">
          <mxGeometry relative="1" as="geometry">
            <mxPoint x="830" y="60" as="targetPoint" />
          </mxGeometry>
        </mxCell>
        <mxCell id="opu5_M7TtZPBm6sJk3Sp-33" style="rounded=0;orthogonalLoop=1;jettySize=auto;html=1;exitX=0.5;exitY=1;exitDx=0;exitDy=0;entryX=0.5;entryY=0;entryDx=0;entryDy=0;strokeColor=#A8201A;fontColor=#143642;fillColor=#FAE5C7;endArrow=none;endFill=0;" edge="1" parent="1" source="opu5_M7TtZPBm6sJk3Sp-27" target="opu5_M7TtZPBm6sJk3Sp-29">
          <mxGeometry relative="1" as="geometry" />
        </mxCell>
        <mxCell id="opu5_M7TtZPBm6sJk3Sp-27" value="Avaliacao" style="whiteSpace=wrap;html=1;align=center;strokeColor=#0F8B8D;fontColor=#143642;fillColor=#FAE5C7;" vertex="1" parent="1">
          <mxGeometry x="830" y="-40" width="100" height="40" as="geometry" />
        </mxCell>
        <mxCell id="opu5_M7TtZPBm6sJk3Sp-28" value="gostou" style="ellipse;whiteSpace=wrap;html=1;align=center;strokeColor=#0F8B8D;fontColor=#143642;fillColor=#FAE5C7;" vertex="1" parent="1">
          <mxGeometry x="827" y="75" width="100" height="40" as="geometry" />
        </mxCell>
        <mxCell id="opu5_M7TtZPBm6sJk3Sp-29" value="nao gostou" style="ellipse;whiteSpace=wrap;html=1;align=center;strokeColor=#0F8B8D;fontColor=#143642;fillColor=#FAE5C7;" vertex="1" parent="1">
          <mxGeometry x="930" y="60" width="100" height="40" as="geometry" />
        </mxCell>
        <mxCell id="opu5_M7TtZPBm6sJk3Sp-58" value="1" style="rounded=0;orthogonalLoop=1;jettySize=auto;html=1;exitX=1;exitY=0.5;exitDx=0;exitDy=0;strokeColor=#A8201A;fontColor=#143642;fillColor=#FAE5C7;endArrow=none;endFill=0;" edge="1" parent="1" source="opu5_M7TtZPBm6sJk3Sp-34">
          <mxGeometry relative="1" as="geometry">
            <mxPoint x="-920" y="-25" as="targetPoint" />
          </mxGeometry>
        </mxCell>
        <mxCell id="opu5_M7TtZPBm6sJk3Sp-85" style="rounded=0;orthogonalLoop=1;jettySize=auto;html=1;exitX=0.5;exitY=1;exitDx=0;exitDy=0;entryX=0.5;entryY=0;entryDx=0;entryDy=0;strokeColor=#A8201A;fontColor=#143642;fillColor=#FAE5C7;endArrow=none;endFill=0;" edge="1" parent="1" source="opu5_M7TtZPBm6sJk3Sp-34" target="opu5_M7TtZPBm6sJk3Sp-40">
          <mxGeometry relative="1" as="geometry" />
        </mxCell>
        <mxCell id="opu5_M7TtZPBm6sJk3Sp-90" style="rounded=0;orthogonalLoop=1;jettySize=auto;html=1;exitX=0.5;exitY=1;exitDx=0;exitDy=0;entryX=0.5;entryY=0;entryDx=0;entryDy=0;strokeColor=#A8201A;fontColor=#143642;fillColor=#FAE5C7;endArrow=none;endFill=0;" edge="1" parent="1" source="opu5_M7TtZPBm6sJk3Sp-34" target="opu5_M7TtZPBm6sJk3Sp-43">
          <mxGeometry relative="1" as="geometry" />
        </mxCell>
        <mxCell id="opu5_M7TtZPBm6sJk3Sp-34" value="assinatura" style="whiteSpace=wrap;html=1;align=center;strokeColor=#0F8B8D;fontColor=#143642;fillColor=#FAE5C7;" vertex="1" parent="1">
          <mxGeometry x="-1170" y="-45" width="100" height="40" as="geometry" />
        </mxCell>
        <mxCell id="opu5_M7TtZPBm6sJk3Sp-38" value="anual" style="ellipse;whiteSpace=wrap;html=1;align=center;dashed=1;strokeColor=#0F8B8D;fontColor=#143642;fillColor=#FAE5C7;" vertex="1" parent="1">
          <mxGeometry x="-1420" y="140" width="100" height="40" as="geometry" />
        </mxCell>
        <mxCell id="opu5_M7TtZPBm6sJk3Sp-39" value="semestral" style="ellipse;whiteSpace=wrap;html=1;align=center;dashed=1;strokeColor=#0F8B8D;fontColor=#143642;fillColor=#FAE5C7;" vertex="1" parent="1">
          <mxGeometry x="-1270" y="140" width="100" height="40" as="geometry" />
        </mxCell>
        <mxCell id="opu5_M7TtZPBm6sJk3Sp-40" value="tipo de plano" style="ellipse;whiteSpace=wrap;html=1;align=center;strokeColor=#0F8B8D;fontColor=#143642;fillColor=#FAE5C7;" vertex="1" parent="1">
          <mxGeometry x="-1300" y="60" width="100" height="40" as="geometry" />
        </mxCell>
        <mxCell id="opu5_M7TtZPBm6sJk3Sp-41" value="preco" style="ellipse;whiteSpace=wrap;html=1;align=center;strokeColor=#0F8B8D;fontColor=#143642;fillColor=#FAE5C7;" vertex="1" parent="1">
          <mxGeometry x="-1170" y="70" width="100" height="40" as="geometry" />
        </mxCell>
        <mxCell id="opu5_M7TtZPBm6sJk3Sp-43" value="data de vencimento" style="ellipse;whiteSpace=wrap;html=1;align=center;dashed=1;strokeColor=#0F8B8D;fontColor=#143642;fillColor=#FAE5C7;" vertex="1" parent="1">
          <mxGeometry x="-1060" y="50" width="100" height="40" as="geometry" />
        </mxCell>
        <mxCell id="opu5_M7TtZPBm6sJk3Sp-72" style="rounded=0;orthogonalLoop=1;jettySize=auto;html=1;exitX=0.5;exitY=1;exitDx=0;exitDy=0;entryX=1;entryY=0;entryDx=0;entryDy=0;strokeColor=#A8201A;fontColor=#143642;fillColor=#FAE5C7;endArrow=none;endFill=0;" edge="1" parent="1" source="opu5_M7TtZPBm6sJk3Sp-44" target="opu5_M7TtZPBm6sJk3Sp-51">
          <mxGeometry relative="1" as="geometry" />
        </mxCell>
        <mxCell id="opu5_M7TtZPBm6sJk3Sp-107" value="N" style="rounded=0;orthogonalLoop=1;jettySize=auto;html=1;exitX=1;exitY=0.5;exitDx=0;exitDy=0;entryX=0;entryY=0.5;entryDx=0;entryDy=0;strokeColor=#A8201A;fontColor=#143642;fillColor=#FAE5C7;endArrow=none;endFill=0;" edge="1" parent="1" source="opu5_M7TtZPBm6sJk3Sp-44" target="opu5_M7TtZPBm6sJk3Sp-106">
          <mxGeometry relative="1" as="geometry" />
        </mxCell>
        <mxCell id="opu5_M7TtZPBm6sJk3Sp-44" value="Genero" style="whiteSpace=wrap;html=1;align=center;strokeColor=#0F8B8D;fontColor=#143642;fillColor=#FAE5C7;" vertex="1" parent="1">
          <mxGeometry x="-50" y="-410" width="100" height="40" as="geometry" />
        </mxCell>
        <mxCell id="opu5_M7TtZPBm6sJk3Sp-45" value="id_genero" style="ellipse;whiteSpace=wrap;html=1;align=center;strokeColor=#0F8B8D;fontColor=#143642;fillColor=#FAE5C7;" vertex="1" parent="1">
          <mxGeometry y="-280" width="100" height="40" as="geometry" />
        </mxCell>
        <mxCell id="opu5_M7TtZPBm6sJk3Sp-48" value="N" style="rounded=0;orthogonalLoop=1;jettySize=auto;html=1;exitX=1;exitY=0.5;exitDx=0;exitDy=0;strokeColor=#A8201A;fontColor=#143642;fillColor=#FAE5C7;endArrow=none;endFill=0;" edge="1" parent="1" source="opu5_M7TtZPBm6sJk3Sp-47" target="opu5_M7TtZPBm6sJk3Sp-27">
          <mxGeometry relative="1" as="geometry" />
        </mxCell>
        <mxCell id="opu5_M7TtZPBm6sJk3Sp-49" value="1" style="rounded=0;orthogonalLoop=1;jettySize=auto;html=1;exitX=0;exitY=0.5;exitDx=0;exitDy=0;strokeColor=#A8201A;fontColor=#143642;fillColor=#FAE5C7;endArrow=none;endFill=0;" edge="1" parent="1" source="opu5_M7TtZPBm6sJk3Sp-47" target="opu5_M7TtZPBm6sJk3Sp-7">
          <mxGeometry relative="1" as="geometry" />
        </mxCell>
        <mxCell id="opu5_M7TtZPBm6sJk3Sp-47" value="Para" style="shape=rhombus;perimeter=rhombusPerimeter;whiteSpace=wrap;html=1;align=center;strokeColor=#B20000;fontColor=#ffffff;fillColor=#e51400;" vertex="1" parent="1">
          <mxGeometry x="540" y="-50" width="120" height="60" as="geometry" />
        </mxCell>
        <mxCell id="opu5_M7TtZPBm6sJk3Sp-79" style="rounded=0;orthogonalLoop=1;jettySize=auto;html=1;exitX=0;exitY=0.5;exitDx=0;exitDy=0;entryX=1;entryY=1;entryDx=0;entryDy=0;strokeColor=#A8201A;fontColor=#143642;fillColor=#FAE5C7;endArrow=none;endFill=0;" edge="1" parent="1" source="opu5_M7TtZPBm6sJk3Sp-51" target="opu5_M7TtZPBm6sJk3Sp-52">
          <mxGeometry relative="1" as="geometry" />
        </mxCell>
        <mxCell id="opu5_M7TtZPBm6sJk3Sp-51" value="tipo" style="ellipse;whiteSpace=wrap;html=1;align=center;strokeColor=#0F8B8D;fontColor=#143642;fillColor=#FAE5C7;" vertex="1" parent="1">
          <mxGeometry x="-157" y="-290" width="100" height="40" as="geometry" />
        </mxCell>
        <mxCell id="opu5_M7TtZPBm6sJk3Sp-52" value="terror" style="ellipse;whiteSpace=wrap;html=1;align=center;dashed=1;strokeColor=#0F8B8D;fontColor=#143642;fillColor=#FAE5C7;" vertex="1" parent="1">
          <mxGeometry x="-272.5" y="-380" width="100" height="40" as="geometry" />
        </mxCell>
        <mxCell id="opu5_M7TtZPBm6sJk3Sp-53" value="romace" style="ellipse;whiteSpace=wrap;html=1;align=center;dashed=1;strokeColor=#0F8B8D;fontColor=#143642;fillColor=#FAE5C7;" vertex="1" parent="1">
          <mxGeometry x="-350" y="-320" width="100" height="40" as="geometry" />
        </mxCell>
        <mxCell id="opu5_M7TtZPBm6sJk3Sp-54" value="suspense" style="ellipse;whiteSpace=wrap;html=1;align=center;dashed=1;strokeColor=#0F8B8D;fontColor=#143642;fillColor=#FAE5C7;" vertex="1" parent="1">
          <mxGeometry x="-272.5" y="-170" width="100" height="40" as="geometry" />
        </mxCell>
        <mxCell id="opu5_M7TtZPBm6sJk3Sp-55" value="drama" style="ellipse;whiteSpace=wrap;html=1;align=center;dashed=1;strokeColor=#0F8B8D;fontColor=#143642;fillColor=#FAE5C7;" vertex="1" parent="1">
          <mxGeometry x="-330" y="-240" width="100" height="40" as="geometry" />
        </mxCell>
        <mxCell id="opu5_M7TtZPBm6sJk3Sp-56" value="acao" style="ellipse;whiteSpace=wrap;html=1;align=center;dashed=1;strokeColor=#0F8B8D;fontColor=#143642;fillColor=#FAE5C7;" vertex="1" parent="1">
          <mxGeometry x="-157" y="-170" width="100" height="40" as="geometry" />
        </mxCell>
        <mxCell id="opu5_M7TtZPBm6sJk3Sp-59" value="Possui" style="shape=rhombus;perimeter=rhombusPerimeter;whiteSpace=wrap;html=1;align=center;strokeColor=#B20000;fontColor=#ffffff;fillColor=#e51400;" vertex="1" parent="1">
          <mxGeometry x="-920" y="-54.85714285714266" width="120" height="60" as="geometry" />
        </mxCell>
        <mxCell id="opu5_M7TtZPBm6sJk3Sp-61" value="gostei muito" style="ellipse;whiteSpace=wrap;html=1;align=center;strokeColor=#0F8B8D;fontColor=#143642;fillColor=#FAE5C7;" vertex="1" parent="1">
          <mxGeometry x="700" y="35" width="100" height="40" as="geometry" />
        </mxCell>
        <mxCell id="opu5_M7TtZPBm6sJk3Sp-63" style="rounded=0;orthogonalLoop=1;jettySize=auto;html=1;exitX=0.5;exitY=1;exitDx=0;exitDy=0;strokeColor=#A8201A;fontColor=#143642;fillColor=#FAE5C7;endArrow=none;endFill=0;entryX=1;entryY=0;entryDx=0;entryDy=0;" edge="1" parent="1" source="opu5_M7TtZPBm6sJk3Sp-27" target="opu5_M7TtZPBm6sJk3Sp-61">
          <mxGeometry relative="1" as="geometry">
            <mxPoint x="830" y="60" as="targetPoint" />
          </mxGeometry>
        </mxCell>
        <mxCell id="opu5_M7TtZPBm6sJk3Sp-68" style="rounded=0;orthogonalLoop=1;jettySize=auto;html=1;exitX=0.5;exitY=1;exitDx=0;exitDy=0;entryX=0.5;entryY=0;entryDx=0;entryDy=0;strokeColor=#A8201A;fontColor=#143642;fillColor=#FAE5C7;endArrow=none;endFill=0;" edge="1" parent="1" source="opu5_M7TtZPBm6sJk3Sp-64" target="opu5_M7TtZPBm6sJk3Sp-65">
          <mxGeometry relative="1" as="geometry" />
        </mxCell>
        <mxCell id="opu5_M7TtZPBm6sJk3Sp-99" value="1" style="rounded=0;orthogonalLoop=1;jettySize=auto;html=1;exitX=0;exitY=0.5;exitDx=0;exitDy=0;entryX=1;entryY=0.5;entryDx=0;entryDy=0;strokeColor=#A8201A;fontColor=#143642;fillColor=#FAE5C7;endArrow=none;endFill=0;" edge="1" parent="1" source="opu5_M7TtZPBm6sJk3Sp-64" target="opu5_M7TtZPBm6sJk3Sp-98">
          <mxGeometry relative="1" as="geometry" />
        </mxCell>
        <mxCell id="opu5_M7TtZPBm6sJk3Sp-64" value="Elenco" style="whiteSpace=wrap;html=1;align=center;strokeColor=#0F8B8D;fontColor=#143642;fillColor=#FAE5C7;" vertex="1" parent="1">
          <mxGeometry x="690" y="-400" width="100" height="40" as="geometry" />
        </mxCell>
        <mxCell id="opu5_M7TtZPBm6sJk3Sp-65" value="nome_autores" style="ellipse;whiteSpace=wrap;html=1;align=center;strokeColor=#0F8B8D;fontColor=#143642;fillColor=#FAE5C7;" vertex="1" parent="1">
          <mxGeometry x="560" y="-290" width="100" height="40" as="geometry" />
        </mxCell>
        <mxCell id="opu5_M7TtZPBm6sJk3Sp-66" value="direcao" style="ellipse;whiteSpace=wrap;html=1;align=center;strokeColor=#0F8B8D;fontColor=#143642;fillColor=#FAE5C7;" vertex="1" parent="1">
          <mxGeometry x="690" y="-240" width="100" height="40" as="geometry" />
        </mxCell>
        <mxCell id="opu5_M7TtZPBm6sJk3Sp-67" value="roteiro" style="ellipse;whiteSpace=wrap;html=1;align=center;strokeColor=#0F8B8D;fontColor=#143642;fillColor=#FAE5C7;" vertex="1" parent="1">
          <mxGeometry x="780" y="-300" width="100" height="40" as="geometry" />
        </mxCell>
        <mxCell id="opu5_M7TtZPBm6sJk3Sp-70" style="rounded=0;orthogonalLoop=1;jettySize=auto;html=1;exitX=0.5;exitY=1;exitDx=0;exitDy=0;entryX=0.5;entryY=0;entryDx=0;entryDy=0;strokeColor=#A8201A;fontColor=#143642;fillColor=#FAE5C7;endArrow=none;endFill=0;" edge="1" parent="1" source="opu5_M7TtZPBm6sJk3Sp-64" target="opu5_M7TtZPBm6sJk3Sp-66">
          <mxGeometry relative="1" as="geometry" />
        </mxCell>
        <mxCell id="opu5_M7TtZPBm6sJk3Sp-71" style="rounded=0;orthogonalLoop=1;jettySize=auto;html=1;exitX=0.5;exitY=1;exitDx=0;exitDy=0;entryX=0.5;entryY=0;entryDx=0;entryDy=0;strokeColor=#A8201A;fontColor=#143642;fillColor=#FAE5C7;endArrow=none;endFill=0;" edge="1" parent="1" source="opu5_M7TtZPBm6sJk3Sp-64" target="opu5_M7TtZPBm6sJk3Sp-67">
          <mxGeometry relative="1" as="geometry" />
        </mxCell>
        <mxCell id="opu5_M7TtZPBm6sJk3Sp-73" style="rounded=0;orthogonalLoop=1;jettySize=auto;html=1;exitX=0.5;exitY=1;exitDx=0;exitDy=0;entryX=0.5;entryY=0;entryDx=0;entryDy=0;strokeColor=#A8201A;fontColor=#143642;fillColor=#FAE5C7;endArrow=none;endFill=0;" edge="1" parent="1" source="opu5_M7TtZPBm6sJk3Sp-44" target="opu5_M7TtZPBm6sJk3Sp-45">
          <mxGeometry relative="1" as="geometry" />
        </mxCell>
        <mxCell id="opu5_M7TtZPBm6sJk3Sp-80" style="rounded=0;orthogonalLoop=1;jettySize=auto;html=1;exitX=0;exitY=0.5;exitDx=0;exitDy=0;entryX=1;entryY=0.5;entryDx=0;entryDy=0;strokeColor=#A8201A;fontColor=#143642;fillColor=#FAE5C7;endArrow=none;endFill=0;" edge="1" parent="1" source="opu5_M7TtZPBm6sJk3Sp-51" target="opu5_M7TtZPBm6sJk3Sp-53">
          <mxGeometry relative="1" as="geometry" />
        </mxCell>
        <mxCell id="opu5_M7TtZPBm6sJk3Sp-82" style="rounded=0;orthogonalLoop=1;jettySize=auto;html=1;exitX=0;exitY=0.5;exitDx=0;exitDy=0;entryX=1;entryY=0.5;entryDx=0;entryDy=0;strokeColor=#A8201A;fontColor=#143642;fillColor=#FAE5C7;endArrow=none;endFill=0;" edge="1" parent="1" source="opu5_M7TtZPBm6sJk3Sp-51" target="opu5_M7TtZPBm6sJk3Sp-55">
          <mxGeometry relative="1" as="geometry" />
        </mxCell>
        <mxCell id="opu5_M7TtZPBm6sJk3Sp-83" style="rounded=0;orthogonalLoop=1;jettySize=auto;html=1;exitX=0;exitY=0.5;exitDx=0;exitDy=0;entryX=0.5;entryY=0;entryDx=0;entryDy=0;strokeColor=#A8201A;fontColor=#143642;fillColor=#FAE5C7;endArrow=none;endFill=0;" edge="1" parent="1" source="opu5_M7TtZPBm6sJk3Sp-51" target="opu5_M7TtZPBm6sJk3Sp-54">
          <mxGeometry relative="1" as="geometry" />
        </mxCell>
        <mxCell id="opu5_M7TtZPBm6sJk3Sp-84" style="rounded=0;orthogonalLoop=1;jettySize=auto;html=1;exitX=0;exitY=0.5;exitDx=0;exitDy=0;entryX=0.5;entryY=0;entryDx=0;entryDy=0;strokeColor=#A8201A;fontColor=#143642;fillColor=#FAE5C7;endArrow=none;endFill=0;" edge="1" parent="1" source="opu5_M7TtZPBm6sJk3Sp-51" target="opu5_M7TtZPBm6sJk3Sp-56">
          <mxGeometry relative="1" as="geometry" />
        </mxCell>
        <mxCell id="opu5_M7TtZPBm6sJk3Sp-86" style="rounded=0;orthogonalLoop=1;jettySize=auto;html=1;exitX=0.5;exitY=1;exitDx=0;exitDy=0;entryX=0.5;entryY=0;entryDx=0;entryDy=0;strokeColor=#A8201A;fontColor=#143642;fillColor=#FAE5C7;endArrow=none;endFill=0;" edge="1" parent="1" source="opu5_M7TtZPBm6sJk3Sp-34" target="opu5_M7TtZPBm6sJk3Sp-41">
          <mxGeometry relative="1" as="geometry" />
        </mxCell>
        <mxCell id="opu5_M7TtZPBm6sJk3Sp-91" style="rounded=0;orthogonalLoop=1;jettySize=auto;html=1;exitX=0.5;exitY=1;exitDx=0;exitDy=0;entryX=0.645;entryY=0.17;entryDx=0;entryDy=0;entryPerimeter=0;strokeColor=#A8201A;fontColor=#143642;fillColor=#FAE5C7;endArrow=none;endFill=0;" edge="1" parent="1" source="opu5_M7TtZPBm6sJk3Sp-40" target="opu5_M7TtZPBm6sJk3Sp-38">
          <mxGeometry relative="1" as="geometry" />
        </mxCell>
        <mxCell id="opu5_M7TtZPBm6sJk3Sp-93" style="rounded=0;orthogonalLoop=1;jettySize=auto;html=1;exitX=0.5;exitY=1;exitDx=0;exitDy=0;entryX=0.5;entryY=0;entryDx=0;entryDy=0;strokeColor=#A8201A;fontColor=#143642;fillColor=#FAE5C7;endArrow=none;endFill=0;" edge="1" parent="1" source="opu5_M7TtZPBm6sJk3Sp-40" target="opu5_M7TtZPBm6sJk3Sp-39">
          <mxGeometry relative="1" as="geometry" />
        </mxCell>
        <mxCell id="opu5_M7TtZPBm6sJk3Sp-100" value="1" style="rounded=0;orthogonalLoop=1;jettySize=auto;html=1;exitX=0.5;exitY=1;exitDx=0;exitDy=0;entryX=0.75;entryY=0;entryDx=0;entryDy=0;strokeColor=#A8201A;fontColor=#143642;fillColor=#FAE5C7;endArrow=none;endFill=0;" edge="1" parent="1" source="opu5_M7TtZPBm6sJk3Sp-98" target="opu5_M7TtZPBm6sJk3Sp-7">
          <mxGeometry relative="1" as="geometry" />
        </mxCell>
        <mxCell id="opu5_M7TtZPBm6sJk3Sp-98" value="Tem" style="shape=rhombus;perimeter=rhombusPerimeter;whiteSpace=wrap;html=1;align=center;strokeColor=#B20000;fontColor=#ffffff;fillColor=#e51400;" vertex="1" parent="1">
          <mxGeometry x="360" y="-410" width="120" height="60" as="geometry" />
        </mxCell>
        <mxCell id="opu5_M7TtZPBm6sJk3Sp-102" value="Para" style="shape=rhombus;perimeter=rhombusPerimeter;whiteSpace=wrap;html=1;align=center;strokeColor=#B20000;fontColor=#ffffff;fillColor=#e51400;" vertex="1" parent="1">
          <mxGeometry x="10" y="-50" width="120" height="60" as="geometry" />
        </mxCell>
        <mxCell id="opu5_M7TtZPBm6sJk3Sp-109" value="1" style="rounded=0;orthogonalLoop=1;jettySize=auto;html=1;exitX=0.5;exitY=1;exitDx=0;exitDy=0;entryX=0.25;entryY=0;entryDx=0;entryDy=0;strokeColor=#A8201A;fontColor=#143642;fillColor=#FAE5C7;endArrow=none;endFill=0;" edge="1" parent="1" source="opu5_M7TtZPBm6sJk3Sp-106" target="opu5_M7TtZPBm6sJk3Sp-7">
          <mxGeometry relative="1" as="geometry" />
        </mxCell>
        <mxCell id="opu5_M7TtZPBm6sJk3Sp-106" value="Tem" style="shape=rhombus;perimeter=rhombusPerimeter;whiteSpace=wrap;html=1;align=center;strokeColor=#B20000;fontColor=#ffffff;fillColor=#e51400;" vertex="1" parent="1">
          <mxGeometry x="150" y="-420" width="120" height="60" as="geometry" />
        </mxCell>
      </root>
    </mxGraphModel>
  </diagram>
</mxfile>
